PathFileType	4	(X/Y/Z)	Patient4_TMGait_0pt4_03_right_29.trc.trc
DataRate	CameraRate	NumFrames	NumMarkers	Units	OrigDataRate	OrigDataStartFrame	OrigNumFrames
72.538860103627	72.538860103627	5	33	mm	72.538860103627	1	       141
Frame#	Time	Sacral			L.Shoulder			Chest			R.Shoulder			Neck			R.ASIS			L.ASIS			R.Thigh.Superior			R.Thigh.Lateral			R.Thigh.Inferior			R.Patella			L.Thigh.Superior			L.Thigh.Lateral			L.Thigh.Inferior			L.Patella			L.Shank.Superior			L.Shank.Lateral			L.Shank.Inferior			R.Shank.Superior			R.Shank.Lateral			R.Shank.Inferior			R.Heel			R.Midfoot.Superior			R.Midfoot.Lateral			R.Toe			L.Heel			L.Midfoot.Lateral			L.Midfoot.Superior			L.Toe			L.Elbow			L.Wrist			R.Elbow			R.Wrist			
		X1	Y1	Z1	X2	Y2	Z2	X3	Y3	Z3	X4	Y4	Z4	X5	Y5	Z5	X6	Y6	Z6	X7	Y7	Z7	X8	Y8	Z8	X9	Y9	Z9	X10	Y10	Z10	X11	Y11	Z11	X12	Y12	Z12	X13	Y13	Z13	X14	Y14	Z14	X15	Y15	Z15	X16	Y16	Z16	X17	Y17	Z17	X18	Y18	Z18	X19	Y19	Z19	X20	Y20	Z20	X21	Y21	Z21	X22	Y22	Z22	X23	Y23	Z23	X24	Y24	Z24	X25	Y25	Z25	X26	Y26	Z26	X27	Y27	Z27	X28	Y28	Z28	X29	Y29	Z29	X30	Y30	Z30	X31	Y31	Z31	X32	Y32	Z32	X33	Y33	Z33	

1	37.520000000000	857.790028131769	999.773956607146	405.490157986095	1014.292780896995	1427.219139625950	201.481162888790	1128.904776843981	1367.481068618439	357.883949094680	1054.569787782290	1442.343034841775	535.813691745080	1009.648309277497	1494.539011190801	356.506483890791	1094.706231468194	944.792359293454	511.316583400192	1067.873775200249	960.862221508435	238.160191212767	1167.493946422795	760.415452364145	488.737331240506	1115.119828167389	642.469475337406	565.038578752180	1204.136744168423	596.262756636150	489.701774269309	1212.447282084959	483.671065060178	514.341639834628	1129.287926580381	753.828979192032	262.002000352362	1042.957035060547	633.262479434058	209.701276002866	1135.121024582924	560.152852188919	266.597787015018	1138.765440022999	489.987784410359	276.946256172767	1109.814197360181	415.704986403677	271.677839740719	1016.680244614516	303.105713323922	222.422233831283	1064.572861954878	190.897072843272	293.860415575236	1132.223163124318	414.230599519442	523.508426902389	1008.921069983049	384.736659450601	586.231661697797	986.375901911500	275.375451942600	540.057890186419	782.271535940291	229.196214273859	517.508394497429	945.746834912913	156.038313435433	555.312915126960	836.789777391322	163.542205660717	589.175825653239	1001.256039526825	38.322172536459	579.484029904556	935.175460428694	38.586713907600	340.214811296158	1006.250222031042	35.253442085510	256.969629098695	1090.245201491669	95.821423963987	282.765930532421	1218.237310360548	43.599510996935	249.436721186346	1000.031725446315	1073.832063594208	82.855167502594	1135.672148307983	848.307449268378	66.507448043814	1050.032286867709	1091.655303078056	654.995827362573	1176.521893338219	862.530737239711	638.463331916164	
2	37.533785714286	857.143714055857	1000.644514466591	403.255705881392	1015.670167397354	1428.109922284506	200.122884653094	1128.646879650192	1368.364577254628	357.662591938523	1052.666761045208	1443.315238796115	534.804066573877	1009.454068623465	1495.433081252554	355.177634919937	1093.270708397767	946.274403872931	510.793347420027	1068.077340498682	961.558340727657	237.431806887646	1168.538335322675	764.476488059043	487.724486010613	1118.901661186139	646.063750113204	564.674179187597	1208.332470857726	601.214227355552	488.972925030823	1219.201435464141	489.018208003277	513.863769116862	1127.190676933773	753.231046416586	261.951837644481	1039.668336122544	633.652934813634	209.045676941149	1130.589066469108	559.514295792307	266.636169437709	1133.368549408877	489.550776261592	277.133427800340	1104.417740120022	415.633819614966	271.627075511176	1011.211069048199	303.149981167868	222.318798574571	1058.837014987835	190.879908306838	293.869840841777	1140.680742879589	417.813616811857	523.062091545790	1018.570166660808	385.104869916091	586.272294378906	998.754133804750	275.285039040768	540.194636340845	796.179514591818	223.709671323289	518.228482322260	961.564719508114	154.994250543915	555.889754080841	852.467838842308	159.128842646768	589.454602730206	1019.931142453609	38.183730962431	578.847911161811	929.249165526103	38.610418770420	340.147222063923	1000.374203384131	35.253554281891	256.930261095029	1084.376643056771	95.789820280655	282.732969812817	1212.369664669604	43.496326448608	249.414268061862	1006.945195407880	1075.436820058476	79.643835323786	1150.106776184345	855.011280625558	63.861591250644	1042.984561375723	1093.870867356776	656.165568336594	1159.639134456880	860.288886736329	646.906521025371	
3	37.547571428571	856.502525805376	1001.524503829930	401.051158214945	1017.090870639596	1428.986916222368	198.804336420061	1128.409072452338	1369.235127124500	357.487316592069	1050.764739008669	1444.276363812436	533.826065129296	1009.275488454616	1496.318428571047	353.886306141075	1091.831363822213	947.730172751744	510.312184147808	1068.309434942197	962.259282270836	236.755094399816	1169.507122125834	768.463516331934	486.738309464222	1122.602658990274	649.607471104347	564.337488222374	1212.347500670424	606.050550861566	488.209907538456	1225.760047275099	494.313793944737	513.388524922682	1125.085363882449	752.636087327461	261.988405088678	1036.379380945275	634.039948572241	208.420383607308	1126.032485647089	558.880428923808	266.706268698550	1127.933179774179	489.120664039065	277.338075417847	1098.999793981608	415.568329245927	271.581458630091	1005.731303087050	303.192557129525	222.216540708310	1053.105039647217	190.867225462717	293.878887317107	1149.000498270221	421.327172147971	522.694024805157	1028.124288441856	385.281473265722	586.366335255506	1011.212762965852	274.963952399521	540.442111633774	810.270335500012	217.718294283106	519.050401259374	977.602595110948	153.698212332268	556.603388986038	868.397032716346	154.370375356225	589.896907565972	1038.991774201360	37.963484422067	578.507693560903	923.343536300534	38.632769749231	340.081739526020	994.519036860784	35.252554500936	256.892275054740	1078.529389635300	95.760977723132	282.700054221363	1206.524268225446	43.399514824304	249.392739981968	1013.713622143786	1077.038834708802	76.496852973052	1164.412888269949	861.812448984935	61.272527801171	1035.889656030965	1096.111416131615	657.389725203229	1142.903271784076	858.269606216631	655.233761801296	
4	37.561357142857	855.880511335056	1002.407681505676	398.920872719315	1018.582028344344	1429.826404028366	197.578131318467	1128.214283412564	1370.068125415490	357.406234128730	1048.885524153079	1445.203826790709	532.923322807188	1009.132002198660	1497.174251375395	352.682610291283	1090.399777385368	949.114856630164	509.917501743096	1068.600782150818	962.961662554533	236.178129632757	1170.304506626324	772.243571687063	485.822810091967	1126.063362204714	652.997545467487	564.068371260222	1215.953119996987	610.597952623214	487.424583074494	1231.850273974341	499.445550871109	512.940505901140	1122.974466769666	752.042945228998	262.168557291739	1033.102658962358	634.418435483762	207.851235398409	1121.448401168295	558.256866420245	266.828185587662	1122.452274258071	488.706273301920	277.568552331574	1093.564692917455	415.514137797108	271.543863836984	1000.255152156242	303.231422534572	222.114077636949	1047.404533601183	190.861904156990	293.885678044341	1156.979816663841	424.677248019280	522.476886981491	1037.468198072539	385.084555717534	586.582252205761	1023.771388074114	274.243886635818	540.889224055242	824.718447009656	210.858744526425	520.055200700459	994.010670540130	151.995225996915	557.553049324729	884.784415854364	149.050736222647	590.634846951995	1058.692320273528	37.679381255525	578.688074483278	917.501303853187	38.651714236835	340.021144860363	988.725731084091	35.249398638243	256.856977928902	1072.743846979955	95.736468744960	282.667589250670	1200.743231473303	43.314077418243	249.372870712376	1020.180317258758	1078.618343841512	73.498410305552	1178.388358048097	868.771048680285	58.808907538254	1028.747349067865	1098.376882809327	658.689873880517	1126.548165314142	856.658372627214	663.273557279218	
5	37.575142857143	855.288024373092	1003.284916194377	396.898258477863	1020.167343103171	1430.604123110858	196.490338770336	1128.082250768402	1370.839562075132	357.461775224979	1047.048226344936	1446.075744613944	532.133211521976	1009.040801407463	1497.979874075735	351.608822149784	1088.989296867174	950.388143598224	509.649107451673	1068.983320921489	963.664412792741	235.736375820595	1170.842682113139	775.691698929319	485.018442145019	1129.132328217269	656.136840128417	563.907519355565	1218.945619348588	614.698654462571	486.640145543277	1237.233793499674	504.312986604786	512.544834964624	1120.854468846591	751.445055948085	262.526194669957	1029.837862999416	634.784773051952	207.352885328655	1116.820432982444	557.644771304548	267.013455499745	1116.905417732902	488.313607872466	277.828160409635	1088.101088761189	415.474742378957	271.514187080357	994.778066264909	303.264460131319	222.007331031993	1041.740520863959	190.865381746494	293.887577355734	1164.453541287304	427.782719001850	522.469507444017	1046.539346221996	384.356687119006	586.990793372515	1036.485962368848	272.999508098488	541.614036282790	839.748610731902	202.839793811543	521.321566399191	1010.975842265400	149.786300911070	558.827340278875	901.875681857539	143.008903012037	591.784250427287	1079.296080845632	37.387638832175	579.561970061142	911.739084010017	38.665635203644	339.967162435534	983.008872139827	35.242836816623	256.825027379542	1067.034055593903	95.717119466433	282.635805065602	1195.041869006016	43.244002294200	249.355239452353	1026.235817328095	1080.155149674236	70.714387893621	1191.895229394079	875.957239038488	56.520511142108	1021.539553227236	1100.666794026946	660.077097060164	1110.735648682711	855.587788984412	670.889755490430	
